<?xml version="1.0" encoding="UTF-8"?>
<!DOCTYPE svg PUBLIC "-//W3C//DTD SVG 1.1//EN" "http://www.w3.org/Graphics/SVG/1.1/DTD/svg11.dtd">
<svg xmlns="http://www.w3.org/2000/svg" version="1.1" width="512px" height="512px" style="shape-rendering:geometricPrecision; text-rendering:geometricPrecision; image-rendering:optimizeQuality; fill-rule:evenodd; clip-rule:evenodd" xmlns:xlink="http://www.w3.org/1999/xlink">
<g><path style="opacity:0.979" fill="#fcfbfb" d="M 500.5,286.5 C 487.813,365.328 447.479,425.494 379.5,467C 309.756,505.003 237.756,510.003 163.5,482C 76.7282,443.055 26.0615,376.555 11.5,282.5C 4.36125,178.278 44.3612,98.111 131.5,42C 204.078,2.20173 278.744,-2.1316 355.5,29C 440.729,69.9252 489.229,137.425 501,231.5C 503.081,249.911 502.914,268.244 500.5,286.5 Z"/></g>
<g><path style="opacity:1" fill="#030303" d="M 474.5,173.5 C 469.025,174.489 463.358,174.822 457.5,174.5C 427.02,102.198 373.353,57.6984 296.5,41C 212.104,28.3121 142.271,54.1455 87,118.5C 73.6565,135.515 63.1565,154.182 55.5,174.5C 49.5,174.5 43.5,174.5 37.5,174.5C 58.6364,117.858 95.9697,75.3581 149.5,47C 216.368,14.8685 284.034,13.2019 352.5,42C 411.041,69.37 451.708,113.203 474.5,173.5 Z"/></g>
<g><path style="opacity:1" fill="#323232" d="M 457.5,174.5 C 323.5,174.5 189.5,174.5 55.5,174.5C 63.1565,154.182 73.6565,135.515 87,118.5C 142.271,54.1455 212.104,28.3121 296.5,41C 373.353,57.6984 427.02,102.198 457.5,174.5 Z"/></g>
<g><path style="opacity:1" fill="#5b2f2f" d="M 474.5,173.5 C 475.338,173.842 475.672,174.508 475.5,175.5C 469.833,175.5 464.167,175.5 458.5,175.5C 323.833,175.5 189.167,175.5 54.5,175.5C 48.8333,175.5 43.1667,175.5 37.5,175.5C 37.5,175.167 37.5,174.833 37.5,174.5C 43.5,174.5 49.5,174.5 55.5,174.5C 189.5,174.5 323.5,174.5 457.5,174.5C 463.358,174.822 469.025,174.489 474.5,173.5 Z"/></g>
<g><path style="opacity:1" fill="#dd0401" d="M 37.5,175.5 C 43.1667,175.5 48.8333,175.5 54.5,175.5C 42.8661,205.77 38.3661,237.104 41,269.5C 55.309,286.811 71.809,301.644 90.5,314C 100.896,319.861 111.229,325.694 121.5,331.5C 93.1667,331.5 64.8333,331.5 36.5,331.5C 24.2372,296.214 20.4038,259.88 25,222.5C 27.0773,211.447 29.4107,200.447 32,189.5C 33.3709,184.536 35.2043,179.869 37.5,175.5 Z"/></g>
<g><path style="opacity:1" fill="#e43332" d="M 54.5,175.5 C 189.167,175.5 323.833,175.5 458.5,175.5C 469.281,204.186 473.781,233.853 472,264.5C 456.615,285.556 437.782,302.723 415.5,316C 406.265,321.448 396.932,326.615 387.5,331.5C 386.5,331.5 385.5,331.5 384.5,331.5C 297.833,331.5 211.167,331.5 124.5,331.5C 123.5,331.5 122.5,331.5 121.5,331.5C 111.229,325.694 100.896,319.861 90.5,314C 71.809,301.644 55.309,286.811 41,269.5C 38.3661,237.104 42.8661,205.77 54.5,175.5 Z"/></g>
<g><path style="opacity:1" fill="#dd0501" d="M 458.5,175.5 C 464.167,175.5 469.833,175.5 475.5,175.5C 493.796,227.261 494.13,279.261 476.5,331.5C 446.833,331.5 417.167,331.5 387.5,331.5C 396.932,326.615 406.265,321.448 415.5,316C 437.782,302.723 456.615,285.556 472,264.5C 473.781,233.853 469.281,204.186 458.5,175.5 Z"/></g>
<g><path style="opacity:0.183" fill="#030303" d="M 11.5,282.5 C 26.0615,376.555 76.7282,443.055 163.5,482C 237.756,510.003 309.756,505.003 379.5,467C 447.479,425.494 487.813,365.328 500.5,286.5C 491.29,366.126 453.29,427.626 386.5,471C 315.988,512.342 242.321,519.009 165.5,491C 80.5294,454.014 29.696,389.847 13,298.5C 12.1697,293.192 11.6697,287.859 11.5,282.5 Z"/></g>
<g><path style="opacity:1" fill="#ffce01" d="M 36.5,331.5 C 64.8333,331.5 93.1667,331.5 121.5,331.5C 122.5,331.5 123.5,331.5 124.5,331.5C 165.005,349.936 207.672,358.936 252.5,358.5C 298.659,359.202 342.659,350.202 384.5,331.5C 385.5,331.5 386.5,331.5 387.5,331.5C 417.167,331.5 446.833,331.5 476.5,331.5C 443.589,416.566 382.256,467.732 292.5,485C 204.23,495.923 131.397,467.756 74,400.5C 57.3461,379.866 44.8461,356.866 36.5,331.5 Z"/></g>
<g><path style="opacity:1" fill="#ffd732" d="M 124.5,331.5 C 211.167,331.5 297.833,331.5 384.5,331.5C 342.659,350.202 298.659,359.202 252.5,358.5C 207.672,358.936 165.005,349.936 124.5,331.5 Z"/></g>
</svg>
