<?xml version="1.0" encoding="UTF-8"?>
<!DOCTYPE svg PUBLIC "-//W3C//DTD SVG 1.1//EN" "http://www.w3.org/Graphics/SVG/1.1/DTD/svg11.dtd">
<svg xmlns="http://www.w3.org/2000/svg" version="1.1" width="512px" height="512px" style="shape-rendering:geometricPrecision; text-rendering:geometricPrecision; image-rendering:optimizeQuality; fill-rule:evenodd; clip-rule:evenodd" xmlns:xlink="http://www.w3.org/1999/xlink">
<g><path style="opacity:0.996" fill="#fefefe" d="M 500.5,286.5 C 487.813,365.328 447.479,425.494 379.5,467C 309.756,505.003 237.756,510.003 163.5,482C 76.7282,443.055 26.0615,376.555 11.5,282.5C 4.36125,178.278 44.3612,98.111 131.5,42C 204.078,2.20173 278.744,-2.1316 355.5,29C 440.729,69.9252 489.229,137.425 501,231.5C 503.081,249.911 502.914,268.244 500.5,286.5 Z"/></g>
<g><path style="opacity:1" fill="#029246" d="M 176.5,35.5 C 177.489,40.9753 177.822,46.642 177.5,52.5C 122.27,74.2276 82.4362,112.228 58,166.5C 42.4262,200.514 37.4262,235.848 43,272.5C 72.7718,305.649 108.938,329.149 151.5,343C 160.076,345.614 168.743,347.781 177.5,349.5C 177.5,349.833 177.5,350.167 177.5,350.5C 177.832,391.67 177.499,432.67 176.5,473.5C 97.7556,442.576 48.2556,385.91 28,303.5C 11.5993,208.344 40.4326,130.177 114.5,69C 133.561,54.9678 154.228,43.8011 176.5,35.5 Z"/></g>
<g><path style="opacity:1" fill="#ce2b37" d="M 333.5,349.5 C 389.438,337.136 435.604,309.136 472,265.5C 473.724,178.431 437.891,111.931 364.5,66C 354.381,60.6061 344.048,55.7727 333.5,51.5C 333.334,45.8236 333.501,40.1569 334,34.5C 405.738,61.9044 454.072,111.904 479,184.5C 499.616,258.394 488.616,327.06 446,390.5C 417.243,429.884 379.909,457.884 334,474.5C 333.5,432.835 333.333,391.168 333.5,349.5 Z"/></g>
<g><path style="opacity:1" fill="#32a76a" d="M 177.5,52.5 C 177.5,151.5 177.5,250.5 177.5,349.5C 168.743,347.781 160.076,345.614 151.5,343C 108.938,329.149 72.7718,305.649 43,272.5C 37.4262,235.848 42.4262,200.514 58,166.5C 82.4362,112.228 122.27,74.2276 177.5,52.5 Z"/></g>
<g><path style="opacity:1" fill="#64bd8e" d="M 176.5,35.5 C 176.56,34.9569 176.893,34.6236 177.5,34.5C 178.5,139.831 178.833,245.165 178.5,350.5C 178.167,350.5 177.833,350.5 177.5,350.5C 177.5,350.167 177.5,349.833 177.5,349.5C 177.5,250.5 177.5,151.5 177.5,52.5C 177.822,46.642 177.489,40.9753 176.5,35.5 Z"/></g>
<g><path style="opacity:1" fill="#d7545e" d="M 333.5,51.5 C 344.048,55.7727 354.381,60.6061 364.5,66C 437.891,111.931 473.724,178.431 472,265.5C 435.604,309.136 389.438,337.136 333.5,349.5C 333.5,250.167 333.5,150.833 333.5,51.5 Z"/></g>
<g><path style="opacity:0.183" fill="#030303" d="M 11.5,282.5 C 26.0615,376.555 76.7282,443.055 163.5,482C 237.756,510.003 309.756,505.003 379.5,467C 447.479,425.494 487.813,365.328 500.5,286.5C 491.29,366.126 453.29,427.626 386.5,471C 315.988,512.342 242.321,519.009 165.5,491C 80.5294,454.014 29.696,389.847 13,298.5C 12.1697,293.192 11.6697,287.859 11.5,282.5 Z"/></g>
<g><path style="opacity:1" fill="#41ad74" d="M 177.5,350.5 C 177.833,350.5 178.167,350.5 178.5,350.5C 178.833,391.839 178.5,433.172 177.5,474.5C 176.893,474.376 176.56,474.043 176.5,473.5C 177.499,432.67 177.832,391.67 177.5,350.5 Z"/></g>
</svg>
