<?xml version="1.0" encoding="UTF-8"?>
<!DOCTYPE svg PUBLIC "-//W3C//DTD SVG 1.1//EN" "http://www.w3.org/Graphics/SVG/1.1/DTD/svg11.dtd">
<svg xmlns="http://www.w3.org/2000/svg" version="1.1" width="512px" height="512px" style="shape-rendering:geometricPrecision; text-rendering:geometricPrecision; image-rendering:optimizeQuality; fill-rule:evenodd; clip-rule:evenodd" xmlns:xlink="http://www.w3.org/1999/xlink">
<g><path style="opacity:0.994" fill="#fefefe" d="M 500.5,286.5 C 487.813,365.328 447.479,425.494 379.5,467C 309.756,505.003 237.756,510.003 163.5,482C 76.7282,443.055 26.0615,376.555 11.5,282.5C 4.36125,178.278 44.3612,98.111 131.5,42C 204.078,2.20173 278.744,-2.1316 355.5,29C 440.729,69.9252 489.229,137.425 501,231.5C 503.081,249.911 502.914,268.244 500.5,286.5 Z"/></g>
<g><path style="opacity:1" fill="#0539a5" d="M 53.5,176.5 C 42.2202,206.512 38.0535,237.512 41,269.5C 56.021,287.858 73.521,303.358 93.5,316C 103.402,321.782 113.402,327.282 123.5,332.5C 94.5,332.5 65.5,332.5 36.5,332.5C 19.4013,280.923 19.2346,229.256 36,177.5C 41.7412,176.525 47.5746,176.192 53.5,176.5 Z"/></g>
<g><path style="opacity:1" fill="#3360b7" d="M 53.5,176.5 C 188.5,176.5 323.5,176.5 458.5,176.5C 469.472,205.135 473.972,234.802 472,265.5C 448.222,294.459 419.389,316.793 385.5,332.5C 384.5,332.5 383.5,332.5 382.5,332.5C 297.167,332.5 211.833,332.5 126.5,332.5C 125.5,332.5 124.5,332.5 123.5,332.5C 113.402,327.282 103.402,321.782 93.5,316C 73.521,303.358 56.021,287.858 41,269.5C 38.0535,237.512 42.2202,206.512 53.5,176.5 Z"/></g>
<g><path style="opacity:1" fill="#073aa5" d="M 458.5,176.5 C 464.537,176.171 470.537,176.504 476.5,177.5C 494.132,229.425 493.799,281.092 475.5,332.5C 445.5,332.5 415.5,332.5 385.5,332.5C 419.389,316.793 448.222,294.459 472,265.5C 473.972,234.802 469.472,205.135 458.5,176.5 Z"/></g>
<g><path style="opacity:0.183" fill="#030303" d="M 11.5,282.5 C 26.0615,376.555 76.7282,443.055 163.5,482C 237.756,510.003 309.756,505.003 379.5,467C 447.479,425.494 487.813,365.328 500.5,286.5C 491.29,366.126 453.29,427.626 386.5,471C 315.988,512.342 242.321,519.009 165.5,491C 80.5294,454.014 29.696,389.847 13,298.5C 12.1697,293.192 11.6697,287.859 11.5,282.5 Z"/></g>
<g><path style="opacity:1" fill="#d52b1e" d="M 36.5,332.5 C 65.5,332.5 94.5,332.5 123.5,332.5C 124.5,332.5 125.5,332.5 126.5,332.5C 155.291,345.784 185.624,353.951 217.5,357C 264.821,361.863 311.154,357.196 356.5,343C 365.535,340.161 374.202,336.661 382.5,332.5C 383.5,332.5 384.5,332.5 385.5,332.5C 415.5,332.5 445.5,332.5 475.5,332.5C 448.105,405.726 397.105,454.226 322.5,478C 235.729,500.835 159.395,482.168 93.5,422C 67.8102,396.46 48.8102,366.627 36.5,332.5 Z"/></g>
<g><path style="opacity:1" fill="#dc544a" d="M 126.5,332.5 C 211.833,332.5 297.167,332.5 382.5,332.5C 374.202,336.661 365.535,340.161 356.5,343C 311.154,357.196 264.821,361.863 217.5,357C 185.624,353.951 155.291,345.784 126.5,332.5 Z"/></g>
</svg>
