<?xml version="1.0" encoding="UTF-8"?>
<!DOCTYPE svg PUBLIC "-//W3C//DTD SVG 1.1//EN" "http://www.w3.org/Graphics/SVG/1.1/DTD/svg11.dtd">
<svg xmlns="http://www.w3.org/2000/svg" version="1.1" width="512px" height="512px" style="shape-rendering:geometricPrecision; text-rendering:geometricPrecision; image-rendering:optimizeQuality; fill-rule:evenodd; clip-rule:evenodd" xmlns:xlink="http://www.w3.org/1999/xlink">
<g><path style="opacity:0.994" fill="#fefdfe" d="M 500.5,286.5 C 487.813,365.328 447.479,425.494 379.5,467C 309.756,505.003 237.756,510.003 163.5,482C 76.7282,443.055 26.0615,376.555 11.5,282.5C 4.36125,178.278 44.3612,98.111 131.5,42C 204.078,2.20173 278.744,-2.1316 355.5,29C 440.729,69.9252 489.229,137.425 501,231.5C 503.081,249.911 502.914,268.244 500.5,286.5 Z"/></g>
<g><path style="opacity:1" fill="#042865" d="M 340.5,53.5 C 328.04,48.9417 315.373,44.9417 302.5,41.5C 298.893,40.5108 295.226,40.1774 291.5,40.5C 290.978,37.4318 290.145,34.4318 289,31.5C 287.477,33.5692 286.643,35.9026 286.5,38.5C 268.486,37.2856 250.486,37.2856 232.5,38.5C 231.97,36.0763 231.136,33.743 230,31.5C 228.727,34.4893 227.561,37.4893 226.5,40.5C 209.836,41.333 193.836,44.9997 178.5,51.5C 177.751,50.469 177.085,49.3024 176.5,48C 179.167,46 181.833,44 184.5,42C 181.118,41.8236 177.785,41.3236 174.5,40.5C 173.233,38.6293 173.233,36.7959 174.5,35C 210.061,21.9651 246.727,17.6318 284.5,22C 304.789,24.8222 324.456,29.9889 343.5,37.5C 344.429,38.6888 344.762,40.0222 344.5,41.5C 341.15,41.335 337.817,41.5017 334.5,42C 336.759,43.7146 338.926,45.5479 341,47.5C 341.18,49.4884 341.014,51.4884 340.5,53.5 Z"/></g>
<g><path style="opacity:1" fill="#f3f4f7" d="M 232.5,38.5 C 232.414,39.4959 232.748,40.3292 233.5,41C 236.833,41.3333 240.167,41.6667 243.5,42C 240.833,44 238.167,46 235.5,48C 236.769,51.125 237.602,54.2917 238,57.5C 235.333,55.5 232.667,53.5 230,51.5C 227.333,53.5 224.667,55.5 222,57.5C 221.996,54.1688 222.829,51.0022 224.5,48C 221.833,46 219.167,44 216.5,42C 220.025,41.8213 223.359,41.3213 226.5,40.5C 227.561,37.4893 228.727,34.4893 230,31.5C 231.136,33.743 231.97,36.0763 232.5,38.5 Z"/></g>
<g><path style="opacity:1" fill="#f2f3f7" d="M 291.5,40.5 C 294.641,41.3213 297.975,41.8213 301.5,42C 298.745,43.7112 296.411,45.8779 294.5,48.5C 295.5,51.1667 296.5,53.8333 297.5,56.5C 296.998,57.521 296.332,57.6877 295.5,57C 293.167,55.1667 290.833,53.3333 288.5,51.5C 286.144,53.69 283.644,55.69 281,57.5C 280.74,54.4233 281.24,51.4233 282.5,48.5C 280.67,45.8387 278.337,43.6721 275.5,42C 278.882,41.8236 282.215,41.3236 285.5,40.5C 285.863,39.8165 286.196,39.1499 286.5,38.5C 286.643,35.9026 287.477,33.5692 289,31.5C 290.145,34.4318 290.978,37.4318 291.5,40.5 Z"/></g>
<g><path style="opacity:1" fill="#345283" d="M 286.5,38.5 C 286.196,39.1499 285.863,39.8165 285.5,40.5C 282.215,41.3236 278.882,41.8236 275.5,42C 278.337,43.6721 280.67,45.8387 282.5,48.5C 281.24,51.4233 280.74,54.4233 281,57.5C 283.644,55.69 286.144,53.69 288.5,51.5C 290.833,53.3333 293.167,55.1667 295.5,57C 296.332,57.6877 296.998,57.521 297.5,56.5C 296.5,53.8333 295.5,51.1667 294.5,48.5C 296.411,45.8779 298.745,43.7112 301.5,42C 297.975,41.8213 294.641,41.3213 291.5,40.5C 295.226,40.1774 298.893,40.5108 302.5,41.5C 315.373,44.9417 328.04,48.9417 340.5,53.5C 338.19,58.511 339.19,58.8444 343.5,54.5C 354.568,60.5399 365.568,66.8732 376.5,73.5C 377.167,68.0147 377.833,62.6813 378.5,57.5C 378.5,69.1667 378.5,80.8333 378.5,92.5C 378.5,104.5 378.5,116.5 378.5,128.5C 377.167,140.5 377.167,152.5 378.5,164.5C 378.5,176.5 378.5,188.5 378.5,200.5C 377.167,212.5 377.167,224.5 378.5,236.5C 378.5,248.5 378.5,260.5 378.5,272.5C 266.5,272.5 154.5,272.5 42.5,272.5C 42.0133,271.527 41.5133,270.527 41,269.5C 40.5002,260.173 40.3335,250.839 40.5,241.5C 40.5512,229.403 42.2179,217.403 45.5,205.5C 45.4346,205.938 45.6012,206.272 46,206.5C 48.364,204.637 50.864,202.971 53.5,201.5C 56.136,202.971 58.636,204.637 61,206.5C 60.8711,203.127 60.5378,199.794 60,196.5C 62.5,194.667 65,192.833 67.5,191C 63.8484,190.501 60.1817,190.335 56.5,190.5C 56.2891,186.818 54.9558,183.818 52.5,181.5C 54.7568,173.236 58.0901,165.403 62.5,158C 61.5842,157.722 60.9175,157.222 60.5,156.5C 61.1667,156.5 61.5,156.167 61.5,155.5C 62.4959,155.586 63.3292,155.252 64,154.5C 67.8711,146.586 72.3711,139.086 77.5,132C 77.2716,131.601 76.9382,131.435 76.5,131.5C 78.4813,129.697 80.648,128.03 83,126.5C 85.6667,128.5 88.3333,130.5 91,132.5C 91.011,129.185 90.1777,126.019 88.5,123C 90.9515,120.602 93.6182,118.436 96.5,116.5C 94.604,115.534 92.604,115.201 90.5,115.5C 95.4769,109.519 100.477,103.519 105.5,97.5C 106.097,97.7352 106.43,98.2352 106.5,99C 105.139,101.73 104.639,104.563 105,107.5C 107.364,105.637 109.864,103.971 112.5,102.5C 115.136,103.971 117.636,105.637 120,107.5C 119.462,104.206 119.129,100.873 119,97.5C 121.445,96.0229 123.612,94.1896 125.5,92C 122.118,91.8236 118.785,91.3236 115.5,90.5C 115.137,89.8165 114.804,89.1499 114.5,88.5C 121.5,83.8333 128.5,79.1667 135.5,74.5C 134.455,77.1138 133.955,79.7804 134,82.5C 136.411,80.422 139.078,78.7553 142,77.5C 144.741,78.7885 147.241,80.4552 149.5,82.5C 149.753,79.5212 149.087,76.5212 147.5,73.5C 149.944,71.1045 152.61,68.9378 155.5,67C 153.19,66.5034 150.857,66.3367 148.5,66.5C 153.167,63.5 157.833,60.5 162.5,57.5C 165.454,55.7195 168.287,53.7195 171,51.5C 173.667,53.5 176.333,55.5 179,57.5C 179.18,55.5116 179.014,53.5116 178.5,51.5C 193.836,44.9997 209.836,41.333 226.5,40.5C 223.359,41.3213 220.025,41.8213 216.5,42C 219.167,44 221.833,46 224.5,48C 222.829,51.0022 221.996,54.1688 222,57.5C 224.667,55.5 227.333,53.5 230,51.5C 232.667,53.5 235.333,55.5 238,57.5C 237.602,54.2917 236.769,51.125 235.5,48C 238.167,46 240.833,44 243.5,42C 240.167,41.6667 236.833,41.3333 233.5,41C 232.748,40.3292 232.414,39.4959 232.5,38.5C 250.486,37.2856 268.486,37.2856 286.5,38.5 Z"/></g>
<g><path style="opacity:1" fill="#354f82" d="M 167.5,37.5 C 168.791,38.5417 168.791,39.7083 167.5,41C 165.167,41.6667 162.833,41.6667 160.5,41C 162.925,39.7874 165.259,38.6207 167.5,37.5 Z"/></g>
<g><path style="opacity:1" fill="#042865" d="M 162.5,57.5 C 157.833,60.5 153.167,63.5 148.5,66.5C 147.167,66.5 145.833,66.5 144.5,66.5C 142.943,53.3708 140.943,53.3708 138.5,66.5C 135.15,66.335 131.817,66.5017 128.5,67C 131.739,68.7364 134.073,71.2364 135.5,74.5C 128.5,79.1667 121.5,83.8333 114.5,88.5C 114.435,86.3043 113.768,84.3043 112.5,82.5C 110.506,85.1498 109.506,88.1498 109.5,91.5C 105.818,91.3347 102.152,91.5014 98.5,92C 101.02,93.6971 103.353,95.5305 105.5,97.5C 100.477,103.519 95.4769,109.519 90.5,115.5C 88.8561,115.714 87.3561,115.38 86,114.5C 83.4373,104.144 81.2707,104.477 79.5,115.5C 76.1016,115.18 72.7683,115.513 69.5,116.5C 69.6236,117.107 69.9569,117.44 70.5,117.5C 73.1974,118.851 75.5308,120.685 77.5,123C 75.8223,126.019 74.989,129.185 75,132.5C 75.3826,131.944 75.8826,131.611 76.5,131.5C 76.9382,131.435 77.2716,131.601 77.5,132C 72.3711,139.086 67.8711,146.586 64,154.5C 63.3292,155.252 62.4959,155.586 61.5,155.5C 60.9155,152.997 60.2489,150.497 59.5,148C 61.5186,145.649 63.8519,143.649 66.5,142C 63.1832,141.502 59.8499,141.335 56.5,141.5C 56.1489,139.131 55.9822,136.797 56,134.5C 80.5639,93.2645 114.564,62.5978 158,42.5C 160.795,44.1455 163.295,46.1455 165.5,48.5C 164.295,51.4496 163.295,54.4496 162.5,57.5 Z"/></g>
<g><path style="opacity:1" fill="#052865" d="M 378.5,55.5 C 378.5,56.1667 378.5,56.8333 378.5,57.5C 377.833,62.6813 377.167,68.0147 376.5,73.5C 365.568,66.8732 354.568,60.5399 343.5,54.5C 344.594,53.4183 345.927,52.7517 347.5,52.5C 350.64,54.0702 353.64,55.5702 356.5,57C 355.208,54.2912 354.208,51.4578 353.5,48.5C 354.566,46.4356 356.233,45.1023 358.5,44.5C 365.69,47.3901 372.357,51.0567 378.5,55.5 Z"/></g>
<g><path style="opacity:1" fill="#da7d92" d="M 378.5,55.5 C 382.289,56.5961 382.289,57.2627 378.5,57.5C 378.5,56.8333 378.5,56.1667 378.5,55.5 Z"/></g>
<g><path style="opacity:1" fill="#f0f2f6" d="M 148.5,66.5 C 150.857,66.3367 153.19,66.5034 155.5,67C 152.61,68.9378 149.944,71.1045 147.5,73.5C 149.087,76.5212 149.753,79.5212 149.5,82.5C 147.241,80.4552 144.741,78.7885 142,77.5C 139.078,78.7553 136.411,80.422 134,82.5C 133.955,79.7804 134.455,77.1138 135.5,74.5C 134.073,71.2364 131.739,68.7364 128.5,67C 131.817,66.5017 135.15,66.335 138.5,66.5C 140.943,53.3708 142.943,53.3708 144.5,66.5C 145.833,66.5 147.167,66.5 148.5,66.5 Z"/></g>
<g><path style="opacity:1" fill="#f3f5f8" d="M 258.5,56.5 C 260.785,59.335 262.118,62.6684 262.5,66.5C 265.85,66.335 269.183,66.5017 272.5,67C 269.461,68.7052 267.128,71.0385 265.5,74C 266.451,76.8221 266.951,79.6554 267,82.5C 264.589,80.422 261.922,78.7553 259,77.5C 256.083,79.2043 253.249,80.7043 250.5,82C 251.42,79.1651 252.42,76.3318 253.5,73.5C 251.056,71.1045 248.39,68.9378 245.5,67C 249.152,66.5014 252.818,66.3347 256.5,66.5C 256.959,63.1226 257.626,59.7893 258.5,56.5 Z"/></g>
<g><path style="opacity:1" fill="#f2f4f7" d="M 317.5,56.5 C 319.198,59.2314 320.531,62.2314 321.5,65.5C 324.785,66.3236 328.118,66.8236 331.5,67C 328.833,69 326.167,71 323.5,73C 325.171,76.0022 326.004,79.1688 326,82.5C 323.589,80.422 320.922,78.7553 318,77.5C 315.259,78.7885 312.759,80.4552 310.5,82.5C 310.247,79.5212 310.913,76.5212 312.5,73.5C 310.056,71.1045 307.39,68.9378 304.5,67C 307.882,66.8236 311.215,66.3236 314.5,65.5C 315.705,62.5504 316.705,59.5504 317.5,56.5 Z"/></g>
<g><path style="opacity:1" fill="#f5f6f9" d="M 199.5,57.5 C 200.75,57.5774 201.583,58.244 202,59.5C 202.662,61.8127 203.162,64.146 203.5,66.5C 206.85,66.335 210.183,66.5017 213.5,67C 211.241,68.7146 209.074,70.5479 207,72.5C 207.538,75.7935 207.871,79.1268 208,82.5C 205.612,80.6019 203.112,78.9352 200.5,77.5C 197.888,78.9352 195.388,80.6019 193,82.5C 193.129,79.1268 193.462,75.7935 194,72.5C 191.926,70.5479 189.759,68.7146 187.5,67C 190.817,66.5017 194.15,66.335 197.5,66.5C 198.167,63.5 198.833,60.5 199.5,57.5 Z"/></g>
<g><path style="opacity:1" fill="#f0f2f6" d="M 170.5,82.5 C 172.383,84.7634 173.716,87.4301 174.5,90.5C 177.785,91.3236 181.118,91.8236 184.5,92C 181.688,93.9773 179.022,96.144 176.5,98.5C 178.475,101.374 179.142,104.374 178.5,107.5C 176.241,105.455 173.741,103.789 171,102.5C 168.172,104.251 165.505,106.251 163,108.5C 162.989,105.185 163.822,102.019 165.5,99C 163.192,96.3653 160.525,94.032 157.5,92C 161.152,91.5014 164.818,91.3347 168.5,91.5C 168.756,88.4021 169.422,85.4021 170.5,82.5 Z"/></g>
<g><path style="opacity:1" fill="#f0f2f6" d="M 229.5,82.5 C 231.198,85.0343 232.531,87.8676 233.5,91C 236.833,91.3333 240.167,91.6667 243.5,92C 241,93.8333 238.5,95.6667 236,97.5C 236.866,101.108 237.533,104.774 238,108.5C 235.852,105.764 233.186,103.764 230,102.5C 227.259,103.789 224.759,105.455 222.5,107.5C 222.006,104.45 222.673,101.45 224.5,98.5C 221.978,96.144 219.312,93.9773 216.5,92C 219.882,91.8236 223.215,91.3236 226.5,90.5C 227.508,87.8048 228.508,85.1381 229.5,82.5 Z"/></g>
<g><path style="opacity:1" fill="#f0f2f6" d="M 287.5,82.5 C 290.341,84.6402 291.674,87.6402 291.5,91.5C 295.182,91.3347 298.848,91.5014 302.5,92C 300,93.8333 297.5,95.6667 295,97.5C 295.538,100.794 295.871,104.127 296,107.5C 293.656,105.819 291.323,104.152 289,102.5C 286.102,103.563 283.602,105.23 281.5,107.5C 281.167,107 280.833,106.5 280.5,106C 281.861,103.27 282.361,100.437 282,97.5C 279.926,95.5479 277.759,93.7146 275.5,92C 278.817,91.5017 282.15,91.335 285.5,91.5C 286.167,88.5 286.833,85.5 287.5,82.5 Z"/></g>
<g><path style="opacity:1" fill="#eff1f5" d="M 114.5,88.5 C 114.804,89.1499 115.137,89.8165 115.5,90.5C 118.785,91.3236 122.118,91.8236 125.5,92C 123.612,94.1896 121.445,96.0229 119,97.5C 119.129,100.873 119.462,104.206 120,107.5C 117.636,105.637 115.136,103.971 112.5,102.5C 109.864,103.971 107.364,105.637 105,107.5C 104.639,104.563 105.139,101.73 106.5,99C 106.43,98.2352 106.097,97.7352 105.5,97.5C 103.353,95.5305 101.02,93.6971 98.5,92C 102.152,91.5014 105.818,91.3347 109.5,91.5C 109.506,88.1498 110.506,85.1498 112.5,82.5C 113.768,84.3043 114.435,86.3043 114.5,88.5 Z"/></g>
<g><path style="opacity:1" fill="#eff1f5" d="M 346.5,82.5 C 348.956,84.8177 350.289,87.8177 350.5,91.5C 354.182,91.3347 357.848,91.5014 361.5,92C 359,93.8333 356.5,95.6667 354,97.5C 354.538,100.794 354.871,104.127 355,107.5C 352.636,105.637 350.136,103.971 347.5,102.5C 344.864,103.971 342.364,105.637 340,107.5C 340.129,104.127 340.462,100.794 341,97.5C 338.5,95.6667 336,93.8333 333.5,92C 337.152,91.5014 340.818,91.3347 344.5,91.5C 345.167,88.5 345.833,85.5 346.5,82.5 Z"/></g>
<g><path style="opacity:1" fill="#c94265" d="M 378.5,92.5 C 394.342,92.1704 410.009,92.5037 425.5,93.5C 417.826,93.3336 410.159,93.5003 402.5,94C 413.806,104.503 423.806,116.003 432.5,128.5C 414.5,128.5 396.5,128.5 378.5,128.5C 378.5,116.5 378.5,104.5 378.5,92.5 Z"/></g>
<g><path style="opacity:1" fill="#bb173f" d="M 425.5,93.5 C 435.933,103.702 444.933,115.035 452.5,127.5C 446.021,128.491 439.354,128.824 432.5,128.5C 423.806,116.003 413.806,104.503 402.5,94C 410.159,93.5003 417.826,93.3336 425.5,93.5 Z"/></g>
<g><path style="opacity:1" fill="#eff1f5" d="M 90.5,115.5 C 92.604,115.201 94.604,115.534 96.5,116.5C 93.6182,118.436 90.9515,120.602 88.5,123C 90.1777,126.019 91.011,129.185 91,132.5C 88.3333,130.5 85.6667,128.5 83,126.5C 80.648,128.03 78.4813,129.697 76.5,131.5C 75.8826,131.611 75.3826,131.944 75,132.5C 74.989,129.185 75.8223,126.019 77.5,123C 75.5308,120.685 73.1974,118.851 70.5,117.5C 73.5,116.833 76.5,116.167 79.5,115.5C 81.2707,104.477 83.4373,104.144 86,114.5C 87.3561,115.38 88.8561,115.714 90.5,115.5 Z"/></g>
<g><path style="opacity:1" fill="#eceef3" d="M 317.5,106.5 C 319.383,108.763 320.716,111.43 321.5,114.5C 324.833,115.167 328.167,115.833 331.5,116.5C 328.618,118.436 325.951,120.602 323.5,123C 325.178,126.019 326.011,129.185 326,132.5C 323.512,130.257 320.846,128.257 318,126.5C 315.333,128.5 312.667,130.5 310,132.5C 309.989,129.185 310.822,126.019 312.5,123C 310.049,120.602 307.382,118.436 304.5,116.5C 308.107,115.511 311.774,115.177 315.5,115.5C 315.756,112.402 316.422,109.402 317.5,106.5 Z"/></g>
<g><path style="opacity:1" fill="#ebeef3" d="M 141.5,106.5 C 143.472,109.084 144.472,112.084 144.5,115.5C 148.182,115.335 151.848,115.501 155.5,116C 152.517,117.984 149.85,120.317 147.5,123C 148.78,126.152 149.613,129.319 150,132.5C 147.305,130.306 144.472,128.306 141.5,126.5C 138.648,128.91 135.648,130.744 132.5,132C 134.378,128.709 135.212,125.209 135,121.5C 132.691,120.025 130.524,118.358 128.5,116.5C 131.833,115.833 135.167,115.167 138.5,114.5C 139.508,111.805 140.508,109.138 141.5,106.5 Z"/></g>
<g><path style="opacity:1" fill="#eceef3" d="M 199.5,106.5 C 201.956,108.818 203.289,111.818 203.5,115.5C 215.862,113.906 217.029,115.906 207,121.5C 206.947,124.202 207.447,126.869 208.5,129.5C 208.167,130.167 207.833,130.833 207.5,131.5C 205.343,129.588 203.009,127.921 200.5,126.5C 197.991,127.921 195.657,129.588 193.5,131.5C 193.167,131 192.833,130.5 192.5,130C 193.861,127.27 194.361,124.437 194,121.5C 183.971,115.906 185.138,113.906 197.5,115.5C 198.167,112.5 198.833,109.5 199.5,106.5 Z"/></g>
<g><path style="opacity:1" fill="#edeff4" d="M 258.5,106.5 C 260.383,108.763 261.716,111.43 262.5,114.5C 265.833,115.167 269.167,115.833 272.5,116.5C 270.476,118.358 268.309,120.025 266,121.5C 265.639,124.437 266.139,127.27 267.5,130C 267.167,130.5 266.833,131 266.5,131.5C 263.991,130.079 261.657,128.412 259.5,126.5C 256.528,128.306 253.695,130.306 251,132.5C 251.387,129.319 252.22,126.152 253.5,123C 251.15,120.317 248.483,117.984 245.5,116C 249.152,115.501 252.818,115.335 256.5,115.5C 257.167,112.5 257.833,109.5 258.5,106.5 Z"/></g>
<g><path style="opacity:1" fill="#7e91b1" d="M 79.5,115.5 C 76.5,116.167 73.5,116.833 70.5,117.5C 69.9569,117.44 69.6236,117.107 69.5,116.5C 72.7683,115.513 76.1016,115.18 79.5,115.5 Z"/></g>
<g><path style="opacity:1" fill="#dcc4d1" d="M 452.5,127.5 C 453.043,127.56 453.376,127.893 453.5,128.5C 428.509,129.5 403.509,129.833 378.5,129.5C 378.5,141.167 378.5,152.833 378.5,164.5C 377.167,152.5 377.167,140.5 378.5,128.5C 396.5,128.5 414.5,128.5 432.5,128.5C 439.354,128.824 446.021,128.491 452.5,127.5 Z"/></g>
<g><path style="opacity:1" fill="#f3f5f8" d="M 170.5,131.5 C 172.573,134.043 173.906,137.043 174.5,140.5C 177.785,141.324 181.118,141.824 184.5,142C 181.833,144 179.167,146 176.5,148C 178.171,151.002 179.004,154.169 179,157.5C 176.333,155.5 173.667,153.5 171,151.5C 162.438,160.324 160.605,159.324 165.5,148.5C 163.589,145.878 161.255,143.711 158.5,142C 161.5,141.667 164.5,141.333 167.5,141C 168.598,137.873 169.598,134.707 170.5,131.5 Z"/></g>
<g><path style="opacity:1" fill="#f3f5f8" d="M 229.5,131.5 C 231.198,134.231 232.531,137.231 233.5,140.5C 236.447,141.321 239.447,141.821 242.5,142C 239.98,143.763 237.647,145.763 235.5,148C 237.053,151.047 237.886,154.214 238,157.5C 235.333,155.5 232.667,153.5 230,151.5C 227.333,153.5 224.667,155.5 222,157.5C 221.996,154.169 222.829,151.002 224.5,148C 221.833,146 219.167,144 216.5,142C 219.882,141.824 223.215,141.324 226.5,140.5C 227.705,137.55 228.705,134.55 229.5,131.5 Z"/></g>
<g><path style="opacity:1" fill="#f4f5f8" d="M 111.5,132.5 C 113.974,134.898 115.308,137.898 115.5,141.5C 118.85,141.335 122.183,141.502 125.5,142C 122.663,143.672 120.33,145.839 118.5,148.5C 119.208,151.458 120.208,154.291 121.5,157C 118.352,155.744 115.352,153.91 112.5,151.5C 110.343,153.412 108.009,155.079 105.5,156.5C 104.605,153.625 104.938,150.792 106.5,148C 104.385,145.771 102.052,143.771 99.5,142C 102.817,141.502 106.15,141.335 109.5,141.5C 109.756,138.402 110.422,135.402 111.5,132.5 Z"/></g>
<g><path style="opacity:1" fill="#f4f6f8" d="M 288.5,131.5 C 290.277,134.505 291.277,137.838 291.5,141.5C 294.85,141.335 298.183,141.502 301.5,142C 298.948,143.771 296.615,145.771 294.5,148C 296.062,150.792 296.395,153.625 295.5,156.5C 293.343,154.588 291.009,152.921 288.5,151.5C 285.909,153.38 283.409,155.38 281,157.5C 281.333,153.833 281.667,150.167 282,146.5C 279.833,145 277.667,143.5 275.5,142C 278.817,141.502 282.15,141.335 285.5,141.5C 286.101,138.032 287.101,134.699 288.5,131.5 Z"/></g>
<g><path style="opacity:1" fill="#f2f4f7" d="M 346.5,131.5 C 349.16,134.113 350.493,137.446 350.5,141.5C 353.85,141.335 357.183,141.502 360.5,142C 357.663,143.672 355.33,145.839 353.5,148.5C 354.208,151.458 355.208,154.291 356.5,157C 353.352,155.744 350.352,153.91 347.5,151.5C 344.648,153.91 341.648,155.744 338.5,157C 339.792,154.291 340.792,151.458 341.5,148.5C 339.67,145.839 337.337,143.672 334.5,142C 337.817,141.502 341.15,141.335 344.5,141.5C 344.959,138.123 345.626,134.789 346.5,131.5 Z"/></g>
<g><path style="opacity:1" fill="#042865" d="M 60.5,156.5 C 60.9175,157.222 61.5842,157.722 62.5,158C 58.0901,165.403 54.7568,173.236 52.5,181.5C 51.8333,184.5 51.1667,187.5 50.5,190.5C 46.8183,190.335 43.1516,190.501 39.5,191C 42,192.833 44.5,194.667 47,196.5C 46.9948,199.536 46.4948,202.536 45.5,205.5C 42.2179,217.403 40.5512,229.403 40.5,241.5C 40.3335,250.839 40.5002,260.173 41,269.5C 41.5133,270.527 42.0133,271.527 42.5,272.5C 36.1667,272.5 29.8333,272.5 23.5,272.5C 20.9981,232.509 27.6647,194.176 43.5,157.5C 44.791,157.737 45.791,157.404 46.5,156.5C 48.9801,155.088 51.3134,153.422 53.5,151.5C 55.6866,153.422 58.0199,155.088 60.5,156.5 Z"/></g>
<g><path style="opacity:1" fill="#6c7fa4" d="M 46.5,156.5 C 45.791,157.404 44.791,157.737 43.5,157.5C 44.3201,155.86 45.1534,154.193 46,152.5C 46.0622,154.115 46.2289,155.448 46.5,156.5 Z"/></g>
<g><path style="opacity:1" fill="#f3f4f7" d="M 82.5,156.5 C 84.3826,158.763 85.7159,161.43 86.5,164.5C 89.7848,165.324 93.1182,165.824 96.5,166C 93.6638,168.007 90.9971,170.174 88.5,172.5C 90.0867,175.521 90.7533,178.521 90.5,181.5C 88.2412,179.455 85.7412,177.789 83,176.5C 80.2588,177.789 77.7588,179.455 75.5,181.5C 75.0851,178.296 75.7518,175.129 77.5,172C 74.8333,170 72.1667,168 69.5,166C 72.8818,165.824 76.2152,165.324 79.5,164.5C 80.5084,161.805 81.5084,159.138 82.5,156.5 Z"/></g>
<g><path style="opacity:1" fill="#f2f3f7" d="M 140.5,156.5 C 143.341,158.64 144.674,161.64 144.5,165.5C 148.182,165.335 151.848,165.501 155.5,166C 152.61,167.938 149.944,170.105 147.5,172.5C 149.087,175.521 149.753,178.521 149.5,181.5C 146.897,179.951 144.397,178.285 142,176.5C 139.078,177.755 136.411,179.422 134,181.5C 134.538,178.206 134.871,174.873 135,171.5C 132.926,169.548 130.759,167.715 128.5,166C 131.817,165.502 135.15,165.335 138.5,165.5C 139.167,162.5 139.833,159.5 140.5,156.5 Z"/></g>
<g><path style="opacity:1" fill="#f3f4f7" d="M 258.5,155.5 C 260.785,158.335 262.118,161.668 262.5,165.5C 265.85,165.335 269.183,165.502 272.5,166C 270.241,167.715 268.074,169.548 266,171.5C 266.129,174.873 266.462,178.206 267,181.5C 264.589,179.422 261.922,177.755 259,176.5C 256.398,178.715 253.565,180.215 250.5,181C 251.727,178.264 252.727,175.431 253.5,172.5C 251.056,170.105 248.39,167.938 245.5,166C 249.152,165.501 252.818,165.335 256.5,165.5C 256.959,162.123 257.626,158.789 258.5,155.5 Z"/></g>
<g><path style="opacity:1" fill="#f3f5f8" d="M 317.5,156.5 C 319.383,158.763 320.716,161.43 321.5,164.5C 324.785,165.324 328.118,165.824 331.5,166C 328.664,168.007 325.997,170.174 323.5,172.5C 325.475,175.374 326.142,178.374 325.5,181.5C 323.241,179.455 320.741,177.789 318,176.5C 315.259,177.789 312.759,179.455 310.5,181.5C 310.247,178.521 310.913,175.521 312.5,172.5C 310.003,170.174 307.336,168.007 304.5,166C 307.833,165.667 311.167,165.333 314.5,165C 315.424,162.135 316.424,159.302 317.5,156.5 Z"/></g>
<g><path style="opacity:1" fill="#f4f6f8" d="M 199.5,156.5 C 201.956,158.818 203.289,161.818 203.5,165.5C 207.182,165.335 210.848,165.501 214.5,166C 212,167.833 209.5,169.667 207,171.5C 207.538,174.794 207.871,178.127 208,181.5C 205.656,179.819 203.323,178.152 201,176.5C 198.078,177.755 195.411,179.422 193,181.5C 193.129,178.127 193.462,174.794 194,171.5C 191.766,169.3 189.266,167.467 186.5,166C 190.152,165.501 193.818,165.335 197.5,165.5C 198.167,162.5 198.833,159.5 199.5,156.5 Z"/></g>
<g><path style="opacity:1" fill="#c84164" d="M 378.5,164.5 C 403.5,164.5 428.5,164.5 453.5,164.5C 458.729,176.081 462.729,188.081 465.5,200.5C 436.5,200.5 407.5,200.5 378.5,200.5C 378.5,188.5 378.5,176.5 378.5,164.5 Z"/></g>
<g><path style="opacity:1" fill="#bc1940" d="M 453.5,164.5 C 459.833,164.5 466.167,164.5 472.5,164.5C 476.76,175.948 480.427,187.615 483.5,199.5C 477.537,200.496 471.537,200.829 465.5,200.5C 462.729,188.081 458.729,176.081 453.5,164.5 Z"/></g>
<g><path style="opacity:1" fill="#f0f2f6" d="M 170.5,181.5 C 172.383,183.763 173.716,186.43 174.5,189.5C 177.785,190.324 181.118,190.824 184.5,191C 181.688,192.977 179.022,195.144 176.5,197.5C 178.475,200.374 179.142,203.374 178.5,206.5C 176.241,204.455 173.741,202.789 171,201.5C 168.172,203.251 165.505,205.251 163,207.5C 162.989,204.185 163.822,201.019 165.5,198C 163.192,195.365 160.525,193.032 157.5,191C 161.152,190.501 164.818,190.335 168.5,190.5C 168.756,187.402 169.422,184.402 170.5,181.5 Z"/></g>
<g><path style="opacity:1" fill="#f1f3f6" d="M 229.5,181.5 C 231.105,184.12 232.438,186.953 233.5,190C 236.833,190.333 240.167,190.667 243.5,191C 241.089,192.955 238.589,194.789 236,196.5C 236.866,200.108 237.533,203.774 238,207.5C 235.495,205.251 232.828,203.251 230,201.5C 227.259,202.789 224.759,204.455 222.5,206.5C 222.247,203.521 222.913,200.521 224.5,197.5C 221.978,195.144 219.312,192.977 216.5,191C 219.882,190.824 223.215,190.324 226.5,189.5C 227.508,186.805 228.508,184.138 229.5,181.5 Z"/></g>
<g><path style="opacity:1" fill="#f0f2f6" d="M 287.5,181.5 C 290.341,183.64 291.674,186.64 291.5,190.5C 295.182,190.335 298.848,190.501 302.5,191C 300,192.833 297.5,194.667 295,196.5C 295.538,199.794 295.871,203.127 296,206.5C 293.636,204.637 291.136,202.971 288.5,201.5C 285.991,202.921 283.657,204.588 281.5,206.5C 281.167,206 280.833,205.5 280.5,205C 281.861,202.27 282.361,199.437 282,196.5C 279.555,195.023 277.388,193.19 275.5,191C 278.882,190.824 282.215,190.324 285.5,189.5C 286.482,186.904 287.149,184.238 287.5,181.5 Z"/></g>
<g><path style="opacity:1" fill="#eff1f5" d="M 52.5,181.5 C 54.9558,183.818 56.2891,186.818 56.5,190.5C 60.1817,190.335 63.8484,190.501 67.5,191C 65,192.833 62.5,194.667 60,196.5C 60.5378,199.794 60.8711,203.127 61,206.5C 58.636,204.637 56.136,202.971 53.5,201.5C 50.864,202.971 48.364,204.637 46,206.5C 45.6012,206.272 45.4346,205.938 45.5,205.5C 46.4948,202.536 46.9948,199.536 47,196.5C 44.5,194.667 42,192.833 39.5,191C 43.1516,190.501 46.8183,190.335 50.5,190.5C 51.1667,187.5 51.8333,184.5 52.5,181.5 Z"/></g>
<g><path style="opacity:1" fill="#eff1f5" d="M 111.5,181.5 C 113.956,183.818 115.289,186.818 115.5,190.5C 119.182,190.335 122.848,190.501 126.5,191C 124,192.833 121.5,194.667 119,196.5C 119.129,199.873 119.462,203.206 120,206.5C 117.586,204.709 115.086,203.043 112.5,201.5C 109.864,202.971 107.364,204.637 105,206.5C 105.129,203.127 105.462,199.794 106,196.5C 103.5,194.667 101,192.833 98.5,191C 102.152,190.501 105.818,190.335 109.5,190.5C 109.756,187.402 110.422,184.402 111.5,181.5 Z"/></g>
<g><path style="opacity:1" fill="#f0f2f6" d="M 346.5,181.5 C 348.956,183.818 350.289,186.818 350.5,190.5C 354.182,190.335 357.848,190.501 361.5,191C 359,192.833 356.5,194.667 354,196.5C 354.538,199.794 354.871,203.127 355,206.5C 352.636,204.637 350.136,202.971 347.5,201.5C 344.864,202.971 342.364,204.637 340,206.5C 340.129,203.127 340.462,199.794 341,196.5C 338.5,194.667 336,192.833 333.5,191C 337.152,190.501 340.818,190.335 344.5,190.5C 345.167,187.5 345.833,184.5 346.5,181.5 Z"/></g>
<g><path style="opacity:1" fill="#f3f5f8" d="M 82.5,205.5 C 84.1981,208.231 85.5315,211.231 86.5,214.5C 89.4465,215.321 92.4465,215.821 95.5,216C 92.9804,217.763 90.6471,219.763 88.5,222C 90.171,225.002 91.0043,228.169 91,231.5C 88.3333,229.5 85.6667,227.5 83,225.5C 80.3333,227.5 77.6667,229.5 75,231.5C 74.9957,228.169 75.829,225.002 77.5,222C 75.3529,219.763 73.0196,217.763 70.5,216C 73.5535,215.821 76.5535,215.321 79.5,214.5C 80.7054,211.55 81.7054,208.55 82.5,205.5 Z"/></g>
<g><path style="opacity:1" fill="#f2f4f7" d="M 317.5,205.5 C 319.573,208.043 320.906,211.043 321.5,214.5C 324.447,215.321 327.447,215.821 330.5,216C 327.98,217.763 325.647,219.763 323.5,222C 325.171,225.002 326.004,228.169 326,231.5C 323.333,229.5 320.667,227.5 318,225.5C 315.333,227.5 312.667,229.5 310,231.5C 309.996,228.169 310.829,225.002 312.5,222C 310.353,219.763 308.02,217.763 305.5,216C 308.553,215.821 311.553,215.321 314.5,214.5C 315.705,211.55 316.705,208.55 317.5,205.5 Z"/></g>
<g><path style="opacity:1" fill="#f2f4f7" d="M 141.5,205.5 C 143.051,208.48 144.384,211.647 145.5,215C 148.5,215.333 151.5,215.667 154.5,216C 151.948,217.771 149.615,219.771 147.5,222C 148.78,225.152 149.613,228.319 150,231.5C 147.305,229.306 144.472,227.306 141.5,225.5C 138.909,227.38 136.409,229.38 134,231.5C 134.333,227.833 134.667,224.167 135,220.5C 132.833,219 130.667,217.5 128.5,216C 131.817,215.502 135.15,215.335 138.5,215.5C 139.101,212.032 140.101,208.699 141.5,205.5 Z"/></g>
<g><path style="opacity:1" fill="#f3f5f8" d="M 199.5,205.5 C 202.16,208.113 203.493,211.446 203.5,215.5C 206.85,215.335 210.183,215.502 213.5,216C 210.663,217.672 208.33,219.839 206.5,222.5C 207.066,224.697 207.732,226.864 208.5,229C 208.167,229.5 207.833,230 207.5,230.5C 205.343,228.588 203.009,226.921 200.5,225.5C 197.648,227.91 194.648,229.744 191.5,231C 193.378,227.709 194.212,224.209 194,220.5C 191.833,219 189.667,217.5 187.5,216C 190.817,215.502 194.15,215.335 197.5,215.5C 197.959,212.123 198.626,208.789 199.5,205.5 Z"/></g>
<g><path style="opacity:1" fill="#f4f5f8" d="M 258.5,205.5 C 260.785,208.335 262.118,211.668 262.5,215.5C 265.85,215.335 269.183,215.502 272.5,216C 270.333,217.5 268.167,219 266,220.5C 265.788,224.209 266.622,227.709 268.5,231C 265.352,229.744 262.352,227.91 259.5,225.5C 256.991,226.921 254.657,228.588 252.5,230.5C 251.605,227.625 251.938,224.792 253.5,222C 251.481,219.649 249.148,217.649 246.5,216C 249.817,215.502 253.15,215.335 256.5,215.5C 256.959,212.123 257.626,208.789 258.5,205.5 Z"/></g>
<g><path style="opacity:1" fill="#f3f5f8" d="M 170.5,230.5 C 172.271,233.154 173.605,236.154 174.5,239.5C 177.785,240.324 181.118,240.824 184.5,241C 181.833,243 179.167,245 176.5,247C 178.171,250.002 179.004,253.169 179,256.5C 176.333,254.5 173.667,252.5 171,250.5C 162.438,259.324 160.605,258.324 165.5,247.5C 163.208,245.343 160.875,243.176 158.5,241C 161.5,240.667 164.5,240.333 167.5,240C 168.598,236.873 169.598,233.707 170.5,230.5 Z"/></g>
<g><path style="opacity:1" fill="#f3f5f8" d="M 229.5,230.5 C 231.303,233.39 232.636,236.557 233.5,240C 236.833,240.333 240.167,240.667 243.5,241C 240.833,243 238.167,245 235.5,247C 236.769,250.125 237.602,253.292 238,256.5C 235.333,254.5 232.667,252.5 230,250.5C 227.333,252.5 224.667,254.5 222,256.5C 221.996,253.169 222.829,250.002 224.5,247C 221.833,245 219.167,243 216.5,241C 219.882,240.824 223.215,240.324 226.5,239.5C 227.705,236.55 228.705,233.55 229.5,230.5 Z"/></g>
<g><path style="opacity:1" fill="#f5f6f9" d="M 40.5,241.5 C 43.6248,240.521 46.9581,240.187 50.5,240.5C 52.5576,228.561 54.5576,228.561 56.5,240.5C 59.8499,240.335 63.1832,240.502 66.5,241C 63.7028,242.721 61.3695,244.887 59.5,247.5C 60.2078,250.458 61.2078,253.291 62.5,256C 59.3525,254.744 56.3525,252.91 53.5,250.5C 50.6475,252.91 47.6475,254.744 44.5,256C 45.7922,253.291 46.7922,250.458 47.5,247.5C 45.7865,244.787 43.4532,242.787 40.5,241.5 Z"/></g>
<g><path style="opacity:1" fill="#f2f4f7" d="M 111.5,231.5 C 113.974,233.898 115.308,236.898 115.5,240.5C 118.85,240.335 122.183,240.502 125.5,241C 122.663,242.672 120.33,244.839 118.5,247.5C 119.76,250.423 120.26,253.423 120,256.5C 117.612,254.602 115.112,252.935 112.5,251.5C 109.535,252.651 106.869,254.318 104.5,256.5C 104.247,253.521 104.913,250.521 106.5,247.5C 104.589,244.878 102.255,242.711 99.5,241C 102.817,240.502 106.15,240.335 109.5,240.5C 109.756,237.402 110.422,234.402 111.5,231.5 Z"/></g>
<g><path style="opacity:1" fill="#f2f4f7" d="M 288.5,230.5 C 290.277,233.505 291.277,236.838 291.5,240.5C 294.85,240.335 298.183,240.502 301.5,241C 298.745,242.711 296.411,244.878 294.5,247.5C 296.087,250.521 296.753,253.521 296.5,256.5C 293.833,254.5 291.167,252.5 288.5,250.5C 286.144,252.69 283.644,254.69 281,256.5C 280.74,253.423 281.24,250.423 282.5,247.5C 280.67,244.839 278.337,242.672 275.5,241C 278.817,240.502 282.15,240.335 285.5,240.5C 286.101,237.032 287.101,233.699 288.5,230.5 Z"/></g>
<g><path style="opacity:1" fill="#f2f4f7" d="M 346.5,230.5 C 347.497,230.47 348.164,230.97 348.5,232C 349.406,234.791 350.073,237.624 350.5,240.5C 353.85,240.335 357.183,240.502 360.5,241C 357.703,242.721 355.369,244.887 353.5,247.5C 354.208,250.458 355.208,253.291 356.5,256C 356.167,256.167 355.833,256.333 355.5,256.5C 353.131,254.318 350.465,252.651 347.5,251.5C 344.36,253.07 341.36,254.57 338.5,256C 339.792,253.291 340.792,250.458 341.5,247.5C 339.631,244.887 337.297,242.721 334.5,241C 337.817,240.502 341.15,240.335 344.5,240.5C 344.959,237.123 345.626,233.789 346.5,230.5 Z"/></g>
<g><path style="opacity:1" fill="#e0c6d2" d="M 378.5,200.5 C 378.5,212.167 378.5,223.833 378.5,235.5C 415.337,235.168 452.004,235.502 488.5,236.5C 483.167,236.5 477.833,236.5 472.5,236.5C 441.167,236.5 409.833,236.5 378.5,236.5C 377.167,224.5 377.167,212.5 378.5,200.5 Z"/></g>
<g><path style="opacity:1" fill="#c84164" d="M 378.5,236.5 C 409.833,236.5 441.167,236.5 472.5,236.5C 472.666,246.172 472.5,255.839 472,265.5C 469.675,267.501 467.842,269.834 466.5,272.5C 437.167,272.5 407.833,272.5 378.5,272.5C 378.5,260.5 378.5,248.5 378.5,236.5 Z"/></g>
<g><path style="opacity:1" fill="#bc1940" d="M 472.5,236.5 C 477.833,236.5 483.167,236.5 488.5,236.5C 489.759,248.353 489.759,260.353 488.5,272.5C 481.167,272.5 473.833,272.5 466.5,272.5C 467.842,269.834 469.675,267.501 472,265.5C 472.5,255.839 472.666,246.172 472.5,236.5 Z"/></g>
<g><path style="opacity:0.183" fill="#030303" d="M 11.5,282.5 C 26.0615,376.555 76.7282,443.055 163.5,482C 237.756,510.003 309.756,505.003 379.5,467C 447.479,425.494 487.813,365.328 500.5,286.5C 491.29,366.126 453.29,427.626 386.5,471C 315.988,512.342 242.321,519.009 165.5,491C 80.5294,454.014 29.696,389.847 13,298.5C 12.1697,293.192 11.6697,287.859 11.5,282.5 Z"/></g>
<g><path style="opacity:1" fill="#bb133e" d="M 29.5,308.5 C 47.5031,308.333 65.5031,308.5 83.5,309C 104.525,323.512 127.191,334.846 151.5,343C 114.835,343.5 78.1682,343.667 41.5,343.5C 36.7294,332.191 32.7294,320.524 29.5,308.5 Z"/></g>
<g><path style="opacity:1" fill="#ca4768" d="M 29.5,308.5 C 180.5,307.167 331.5,307.167 482.5,308.5C 463.83,308.333 445.164,308.5 426.5,309C 404.749,323.542 381.415,334.875 356.5,343C 394.832,343.5 433.165,343.667 471.5,343.5C 328.167,344.833 184.833,344.833 41.5,343.5C 78.1682,343.667 114.835,343.5 151.5,343C 127.191,334.846 104.525,323.512 83.5,309C 65.5031,308.5 47.5031,308.333 29.5,308.5 Z"/></g>
<g><path style="opacity:1" fill="#bb133e" d="M 482.5,308.5 C 479.835,320.493 476.169,332.16 471.5,343.5C 433.165,343.667 394.832,343.5 356.5,343C 381.415,334.875 404.749,323.542 426.5,309C 445.164,308.5 463.83,308.333 482.5,308.5 Z"/></g>
<g><path style="opacity:1" fill="#cc4e6e" d="M 451.5,380.5 C 321.332,380.167 191.332,380.5 61.5,381.5C 60.9569,381.44 60.6236,381.107 60.5,380.5C 125.833,380.167 191.167,379.833 256.5,379.5C 322.237,379.498 387.237,379.832 451.5,380.5 Z"/></g>
<g><path style="opacity:1" fill="#bc1940" d="M 451.5,380.5 C 443.524,393.32 434.191,405.153 423.5,416C 311.832,416.833 200.165,416.667 88.5,415.5C 78.0474,405.229 69.0474,393.895 61.5,381.5C 191.332,380.5 321.332,380.167 451.5,380.5 Z"/></g>
<g><path style="opacity:1" fill="#bb153f" d="M 133.5,452.5 C 214.999,451.334 296.666,451.168 378.5,452C 318.824,487.524 255.491,495.858 188.5,477C 169.197,470.85 150.864,462.684 133.5,452.5 Z"/></g>
</svg>
